<mxfile host="www.draw.io" modified="2019-11-12T08:43:03.343Z" agent="Mozilla/5.0 (Windows NT 10.0; Win64; x64) AppleWebKit/537.36 (KHTML, like Gecko) Chrome/78.0.3904.87 Safari/537.36" etag="jQU9VzyGXl_hFzFvKedQ" version="12.2.3" type="github" pages="1">
  <diagram id="Zuy4TVDWpifRg8ymD8MX" name="Page-1">
    <mxGraphModel dx="1233" dy="779" grid="1" gridSize="10" guides="1" tooltips="1" connect="1" arrows="1" fold="1" page="1" pageScale="1" pageWidth="850" pageHeight="1100" math="0" shadow="0">
      <root>
        <mxCell id="0"/>
        <mxCell id="1" parent="0"/>
        <mxCell id="WmHyTFGNuv3Rz_PJ6TDa-1" value="" style="rounded=0;whiteSpace=wrap;html=1;fontSize=17;strokeColor=#CCCCCC;" vertex="1" parent="1">
          <mxGeometry x="75" y="568" width="370" height="402" as="geometry"/>
        </mxCell>
        <mxCell id="WmHyTFGNuv3Rz_PJ6TDa-2" value="Fastnet3" style="rounded=0;whiteSpace=wrap;html=1;align=left;strokeColor=#CCCCCC;" vertex="1" parent="1">
          <mxGeometry x="75" y="548" width="120" height="20" as="geometry"/>
        </mxCell>
        <mxCell id="WmHyTFGNuv3Rz_PJ6TDa-3" style="edgeStyle=orthogonalEdgeStyle;rounded=0;orthogonalLoop=1;jettySize=auto;html=1;entryX=0.5;entryY=0;entryDx=0;entryDy=0;fontSize=17;" edge="1" parent="1" source="WmHyTFGNuv3Rz_PJ6TDa-4" target="WmHyTFGNuv3Rz_PJ6TDa-7">
          <mxGeometry relative="1" as="geometry"/>
        </mxCell>
        <mxCell id="WmHyTFGNuv3Rz_PJ6TDa-4" value="" style="shape=mxgraph.bpmn.script_task;html=1;outlineConnect=0;" vertex="1" parent="1">
          <mxGeometry x="245" y="143" width="30" height="27" as="geometry"/>
        </mxCell>
        <mxCell id="WmHyTFGNuv3Rz_PJ6TDa-5" style="edgeStyle=orthogonalEdgeStyle;rounded=0;orthogonalLoop=1;jettySize=auto;html=1;fontSize=17;" edge="1" parent="1" source="WmHyTFGNuv3Rz_PJ6TDa-6" target="WmHyTFGNuv3Rz_PJ6TDa-4">
          <mxGeometry relative="1" as="geometry"/>
        </mxCell>
        <mxCell id="WmHyTFGNuv3Rz_PJ6TDa-6" value="eMargin" style="rounded=0;whiteSpace=wrap;html=1;fontSize=12;fontStyle=1" vertex="1" parent="1">
          <mxGeometry x="200" y="60" width="120" height="50" as="geometry"/>
        </mxCell>
        <mxCell id="WmHyTFGNuv3Rz_PJ6TDa-7" value="" style="rounded=0;whiteSpace=wrap;html=1;fontSize=17;strokeColor=#CCCCCC;" vertex="1" parent="1">
          <mxGeometry x="75" y="200" width="370" height="320" as="geometry"/>
        </mxCell>
        <mxCell id="WmHyTFGNuv3Rz_PJ6TDa-8" value="&lt;font style=&quot;font-size: 12px;&quot;&gt;Mapping xml to mo_policy&lt;/font&gt;" style="label;whiteSpace=wrap;html=1;image=img/clipart/Gear_128x128.png;fontSize=12;" vertex="1" parent="1">
          <mxGeometry x="190" y="220" width="140" height="60" as="geometry"/>
        </mxCell>
        <mxCell id="WmHyTFGNuv3Rz_PJ6TDa-9" value="XML request" style="text;html=1;strokeColor=none;fillColor=none;align=center;verticalAlign=middle;whiteSpace=wrap;rounded=0;fontSize=12;" vertex="1" parent="1">
          <mxGeometry x="282.5" y="150" width="75" height="20" as="geometry"/>
        </mxCell>
        <mxCell id="WmHyTFGNuv3Rz_PJ6TDa-10" style="edgeStyle=orthogonalEdgeStyle;rounded=0;orthogonalLoop=1;jettySize=auto;html=1;entryX=0.75;entryY=1;entryDx=0;entryDy=0;fontSize=12;curved=1;" edge="1" parent="1" source="WmHyTFGNuv3Rz_PJ6TDa-11" target="WmHyTFGNuv3Rz_PJ6TDa-8">
          <mxGeometry relative="1" as="geometry"/>
        </mxCell>
        <mxCell id="WmHyTFGNuv3Rz_PJ6TDa-11" value="mapping_rule" style="shape=cylinder;whiteSpace=wrap;html=1;boundedLbl=1;backgroundOutline=1;fontSize=12;fontStyle=1" vertex="1" parent="1">
          <mxGeometry x="340" y="290" width="85" height="50" as="geometry"/>
        </mxCell>
        <mxCell id="WmHyTFGNuv3Rz_PJ6TDa-12" style="edgeStyle=orthogonalEdgeStyle;curved=1;rounded=0;orthogonalLoop=1;jettySize=auto;html=1;entryX=0.5;entryY=0;entryDx=0;entryDy=0;endArrow=classic;endFill=1;fontSize=12;startArrow=none;startFill=0;fillColor=#f5f5f5;strokeColor=#000000;" edge="1" parent="1" source="WmHyTFGNuv3Rz_PJ6TDa-13" target="WmHyTFGNuv3Rz_PJ6TDa-16">
          <mxGeometry relative="1" as="geometry"/>
        </mxCell>
        <mxCell id="WmHyTFGNuv3Rz_PJ6TDa-13" value="mo_policy object" style="shape=parallelogram;perimeter=parallelogramPerimeter;whiteSpace=wrap;html=1;fontSize=12;fontStyle=1" vertex="1" parent="1">
          <mxGeometry x="190" y="360" width="130" height="50" as="geometry"/>
        </mxCell>
        <mxCell id="WmHyTFGNuv3Rz_PJ6TDa-14" value="" style="endArrow=classic;html=1;fontSize=12;entryX=0.538;entryY=0;entryDx=0;entryDy=0;entryPerimeter=0;" edge="1" parent="1" source="WmHyTFGNuv3Rz_PJ6TDa-8" target="WmHyTFGNuv3Rz_PJ6TDa-13">
          <mxGeometry width="50" height="50" relative="1" as="geometry">
            <mxPoint x="260" y="330" as="sourcePoint"/>
            <mxPoint x="260" y="350.71067811865476" as="targetPoint"/>
          </mxGeometry>
        </mxCell>
        <mxCell id="WmHyTFGNuv3Rz_PJ6TDa-15" style="edgeStyle=orthogonalEdgeStyle;rounded=0;orthogonalLoop=1;jettySize=auto;html=1;" edge="1" parent="1" source="WmHyTFGNuv3Rz_PJ6TDa-16" target="WmHyTFGNuv3Rz_PJ6TDa-19">
          <mxGeometry relative="1" as="geometry"/>
        </mxCell>
        <mxCell id="WmHyTFGNuv3Rz_PJ6TDa-16" value="mo_policy" style="shape=cylinder;whiteSpace=wrap;html=1;boundedLbl=1;backgroundOutline=1;fontSize=12;fontStyle=1" vertex="1" parent="1">
          <mxGeometry x="212.5" y="450" width="85" height="50" as="geometry"/>
        </mxCell>
        <mxCell id="WmHyTFGNuv3Rz_PJ6TDa-17" value="FastnetBridge" style="rounded=0;whiteSpace=wrap;html=1;align=left;strokeColor=#CCCCCC;" vertex="1" parent="1">
          <mxGeometry x="75" y="180" width="120" height="20" as="geometry"/>
        </mxCell>
        <mxCell id="WmHyTFGNuv3Rz_PJ6TDa-18" style="edgeStyle=orthogonalEdgeStyle;curved=1;rounded=0;orthogonalLoop=1;jettySize=auto;html=1;entryX=0.556;entryY=0.024;entryDx=0;entryDy=0;entryPerimeter=0;" edge="1" parent="1" source="WmHyTFGNuv3Rz_PJ6TDa-19" target="WmHyTFGNuv3Rz_PJ6TDa-21">
          <mxGeometry relative="1" as="geometry"/>
        </mxCell>
        <mxCell id="WmHyTFGNuv3Rz_PJ6TDa-19" value="&lt;font style=&quot;font-size: 12px&quot;&gt;Check in policy&lt;/font&gt;" style="label;whiteSpace=wrap;html=1;image=img/clipart/Gear_128x128.png;fontSize=12;" vertex="1" parent="1">
          <mxGeometry x="185" y="590" width="140" height="60" as="geometry"/>
        </mxCell>
        <mxCell id="WmHyTFGNuv3Rz_PJ6TDa-20" style="edgeStyle=orthogonalEdgeStyle;curved=1;rounded=0;orthogonalLoop=1;jettySize=auto;html=1;" edge="1" parent="1" source="WmHyTFGNuv3Rz_PJ6TDa-21" target="WmHyTFGNuv3Rz_PJ6TDa-24">
          <mxGeometry relative="1" as="geometry"/>
        </mxCell>
        <mxCell id="WmHyTFGNuv3Rz_PJ6TDa-21" value="&lt;span style=&quot;&quot;&gt;mo_policy with multi destination&lt;/span&gt;" style="shape=parallelogram;perimeter=parallelogramPerimeter;whiteSpace=wrap;html=1;fontSize=12;fontStyle=1" vertex="1" parent="1">
          <mxGeometry x="160" y="678" width="170" height="42" as="geometry"/>
        </mxCell>
        <mxCell id="WmHyTFGNuv3Rz_PJ6TDa-22" style="edgeStyle=orthogonalEdgeStyle;rounded=0;orthogonalLoop=1;jettySize=auto;html=1;entryX=0;entryY=0.5;entryDx=0;entryDy=0;curved=1;" edge="1" parent="1" source="WmHyTFGNuv3Rz_PJ6TDa-24" target="WmHyTFGNuv3Rz_PJ6TDa-25">
          <mxGeometry relative="1" as="geometry"/>
        </mxCell>
        <mxCell id="WmHyTFGNuv3Rz_PJ6TDa-23" style="edgeStyle=orthogonalEdgeStyle;curved=1;rounded=0;orthogonalLoop=1;jettySize=auto;html=1;entryX=0;entryY=0.5;entryDx=0;entryDy=0;" edge="1" parent="1" source="WmHyTFGNuv3Rz_PJ6TDa-24" target="WmHyTFGNuv3Rz_PJ6TDa-26">
          <mxGeometry relative="1" as="geometry"/>
        </mxCell>
        <mxCell id="WmHyTFGNuv3Rz_PJ6TDa-24" value="Split country code" style="rounded=0;whiteSpace=wrap;html=1;align=center;fontStyle=1" vertex="1" parent="1">
          <mxGeometry x="185" y="750" width="120" height="40" as="geometry"/>
        </mxCell>
        <mxCell id="WmHyTFGNuv3Rz_PJ6TDa-25" value="policy_history" style="shape=cylinder;whiteSpace=wrap;html=1;boundedLbl=1;backgroundOutline=1;fontSize=12;fontStyle=1" vertex="1" parent="1">
          <mxGeometry x="275" y="820" width="95" height="50" as="geometry"/>
        </mxCell>
        <mxCell id="WmHyTFGNuv3Rz_PJ6TDa-26" value="policy_destination" style="shape=cylinder;whiteSpace=wrap;html=1;boundedLbl=1;backgroundOutline=1;fontSize=12;fontStyle=1" vertex="1" parent="1">
          <mxGeometry x="272.5" y="900" width="95" height="50" as="geometry"/>
        </mxCell>
      </root>
    </mxGraphModel>
  </diagram>
</mxfile>
